<svg xmlns="http://www.w3.org/2000/svg" viewBox="0 0 31.98 31.99"><defs><style>.cls-1{fill:#fff;fill-rule:evenodd;}</style></defs><title>Asset 3</title><g id="Layer_2" data-name="Layer 2"><g id="Layer_1-2" data-name="Layer 1"><path class="cls-1" d="M31.67,27.87,27.1,23.3a1.08,1.08,0,0,0-1.52,0l-.12.12L23.3,21.27a.92.92,0,0,0-.18-.12,13,13,0,1,0-2,2,.92.92,0,0,0,.12.18l2.15,2.15-.12.12a1.08,1.08,0,0,0,0,1.52l4.57,4.57a1.08,1.08,0,0,0,1.52,0l2.29-2.29A1.08,1.08,0,0,0,31.67,27.87ZM13,21a8,8,0,1,1,8-8A8,8,0,0,1,13,21Z"/></g></g></svg>