<svg version="1.1" id="Layer_1" xmlns="http://www.w3.org/2000/svg" xmlns:xlink="http://www.w3.org/1999/xlink" x="0px" y="0px"
	 viewBox="0 0 203.2 156.3" style="enable-background:new 0 0 203.2 156.3;" xml:space="preserve">
<style type="text/css">
	rect, polyline, polygon, path {fill:none;stroke:#938E81;stroke-miterlimit:10;stroke-width:4}
</style>
<g>
	<polygon class="st0" points="44.4,25 15.7,62.5 29.9,62.5 10.2,101.5 27.9,101.5 7.4,137.5 97.9,137.5 72.9,100.5 92.9,100.5 
		61.9,61.5 77.9,61.5 	"/>
	<polygon class="st0" points="84.5,6.5 60,41.6 68.6,51.3 77.9,61.5 61.9,61.5 92.9,100.5 72.9,100.5 97.9,137.5 101.5,137.5 
		119.9,98.5 102.2,98.5 121.9,50.5 107.7,50.5 112,42 	"/>
	<polygon class="st0" points="136.4,7.5 107.7,50.5 121.9,50.5 102.2,98.5 119.9,98.5 99.4,144.5 189.9,143.5 164.9,97.5 
		184.9,97.5 153.9,48.5 169.9,48.5 	"/>
</g>
</svg>