<?xml version="1.0" encoding="utf-8"?>
<!-- Generator: Adobe Illustrator 21.0.0, SVG Export Plug-In . SVG Version: 6.00 Build 0)  -->
<svg version="1.1" id="Layer_1" xmlns="http://www.w3.org/2000/svg" xmlns:xlink="http://www.w3.org/1999/xlink" x="0px" y="0px"
	 viewBox="0 0 48 48" style="enable-background:new 0 0 48 48;" xml:space="preserve">
<style type="text/css">
	.st0{fill:none;stroke:#938E81;stroke-width:1.5;stroke-miterlimit:10;}
</style>
<path class="st0" d="M40.3,9.5c-0.5-1.4-1.8-2.4-3.4-2.4H11c-1.5,0-2.9,1-3.4,2.4L2.8,23.6v18.9c0,1.3,1.1,2.4,2.4,2.4h2.4
	c1.3,0,2.4-1.1,2.4-2.4v-2.4h28.3v2.4c0,1.3,1.1,2.4,2.4,2.4h2.4c1.3,0,2.4-1.1,2.4-2.4V23.6L40.3,9.5z M11,33.1
	c-2,0-3.5-1.6-3.5-3.5S9.1,26,11,26s3.5,1.6,3.5,3.5S13,33.1,11,33.1z M37,33.1c-2,0-3.5-1.6-3.5-3.5S35,26,37,26s3.5,1.6,3.5,3.5
	S38.9,33.1,37,33.1z M7.5,21.3L11,10.7h26l3.5,10.6H7.5z"/>
</svg>
